<?xml version="1.0" standalone="no"?>
<!DOCTYPE svg PUBLIC "-//W3C//DTD SVG 20010904//EN"
 "http://www.w3.org/TR/2001/REC-SVG-20010904/DTD/svg10.dtd">
<svg version="1.0" xmlns="http://www.w3.org/2000/svg"
 width="1200.000000pt" height="1200.000000pt" viewBox="0 0 1200.000000 1200.000000"
 preserveAspectRatio="xMidYMid meet">
<metadata>
Created by potrace 1.14, written by Peter Selinger 2001-2017
</metadata>
<g transform="translate(0.000000,1200.000000) scale(0.100000,-0.100000)"
fill="#000000" stroke="none">
<path d="M2389 11996 c-2 -2 -33 -6 -69 -10 -36 -3 -76 -8 -90 -10 -14 -3 -43
-7 -65 -10 -38 -5 -206 -40 -250 -52 -11 -3 -24 -6 -30 -8 -67 -18 -177 -55
-266 -92 -125 -49 -312 -142 -317 -155 -2 -5 -8 -9 -12 -9 -11 0 -125 -66
-142 -83 -7 -7 -30 -22 -50 -34 -20 -12 -45 -29 -55 -37 -10 -9 -47 -40 -83
-68 -184 -147 -363 -339 -490 -523 -19 -27 -38 -52 -41 -55 -3 -3 -8 -12 -12
-20 -4 -8 -25 -44 -47 -79 -22 -34 -40 -66 -40 -71 0 -4 -9 -18 -19 -32 -11
-13 -23 -37 -26 -51 -4 -15 -10 -27 -14 -27 -4 0 -15 -22 -26 -50 -11 -27 -24
-50 -29 -50 -5 0 -7 -3 -3 -6 3 -3 -4 -27 -15 -52 -37 -86 -67 -175 -62 -184
3 -4 1 -8 -4 -8 -9 0 -51 -137 -58 -185 -1 -11 -3 -20 -4 -20 -1 0 -3 -7 -5
-15 -2 -8 -6 -28 -10 -45 -4 -16 -8 -41 -9 -55 -1 -14 -6 -31 -10 -38 -4 -7
-5 -12 -3 -12 2 0 1 -20 -4 -45 -5 -25 -12 -80 -16 -123 -11 -103 -10 -7289 0
-7372 17 -133 23 -171 36 -232 6 -23 8 -45 5 -49 -2 -4 0 -9 5 -11 5 -1 11
-21 14 -43 6 -45 31 -132 71 -245 15 -41 28 -79 30 -85 1 -5 10 -28 20 -50 25
-57 34 -79 34 -89 0 -5 4 -12 9 -15 5 -3 17 -26 28 -51 11 -25 22 -47 25 -50
3 -3 14 -24 25 -47 11 -24 23 -43 26 -43 3 0 11 -16 19 -35 8 -19 17 -35 22
-35 4 0 8 -5 8 -10 0 -21 167 -250 183 -250 6 0 8 -3 4 -6 -12 -12 169 -207
292 -314 35 -30 69 -59 75 -65 40 -36 106 -85 114 -85 6 0 12 -3 14 -7 11 -26
231 -160 387 -237 62 -30 114 -55 116 -55 3 0 21 -8 41 -16 20 -8 42 -15 48
-15 7 0 16 -4 21 -8 9 -8 156 -56 190 -62 3 -1 19 -6 37 -11 38 -11 58 -17 91
-24 104 -22 119 -25 152 -30 17 -2 44 -6 60 -9 17 -3 64 -9 105 -13 94 -10
7269 -11 7365 -1 39 4 80 10 92 12 11 2 43 8 70 12 46 6 58 8 113 20 14 3 30
7 35 8 6 1 16 5 23 9 6 5 12 6 12 3 0 -5 87 18 120 31 8 3 18 6 22 5 7 -2 105
33 223 79 74 28 319 150 323 161 2 4 8 8 12 8 15 0 140 82 140 91 0 5 6 9 13
9 16 0 203 145 276 214 56 52 155 154 211 216 43 48 191 246 220 295 13 22 27
42 30 45 4 3 9 12 13 20 3 8 20 38 37 65 16 28 33 57 36 65 3 8 23 49 44 90
21 41 38 78 39 82 1 4 10 27 20 51 24 55 89 247 95 278 3 13 5 24 6 24 1 0 3
7 5 15 2 8 11 47 20 85 10 39 19 81 21 95 1 14 6 39 9 55 7 33 11 63 22 175
11 100 10 7242 0 7345 -12 117 -20 176 -36 247 -6 23 -8 45 -5 49 2 4 0 9 -5
11 -5 1 -11 21 -14 43 -9 71 -85 299 -143 430 -10 22 -17 43 -16 48 1 4 -2 7
-8 7 -5 0 -10 5 -10 11 0 6 -13 37 -29 68 -133 257 -281 459 -490 669 -94 93
-307 272 -325 272 -4 0 -16 8 -27 18 -10 11 -32 25 -47 33 -15 8 -29 16 -32
19 -8 9 -148 90 -154 90 -4 0 -24 11 -46 25 -22 14 -40 22 -40 18 0 -5 -4 -3
-8 3 -13 19 -314 139 -400 159 -9 3 -35 9 -57 15 -54 15 -164 40 -195 45 -14
3 -36 7 -50 10 -14 2 -49 7 -78 11 -29 3 -63 8 -75 12 -23 7 -7300 15 -7308 8z"/>
</g>
</svg>
